<?xml version="1.0" encoding="UTF-8"?>
<svg width="128px" height="128px" viewBox="0 0 128 128" version="1.1" xmlns="http://www.w3.org/2000/svg" xmlns:xlink="http://www.w3.org/1999/xlink">
    <!-- Generator: Sketch 48.2 (47327) - http://www.bohemiancoding.com/sketch -->
    <title>eyes1</title>
    <desc>Created with Sketch.</desc>
    <defs></defs>
    <g id="Page-1" stroke="none" stroke-width="1" fill="none" fill-rule="evenodd">
        <g id="eyes1" fill="#09333F">
            <g id="Group-5" transform="translate(31.000000, 64.000000)">
                <path d="M0,6 C0,2.6862915 2.6862915,0 6,0 C9.3137085,0 12,2.6862915 12,6 C12,7.09286143 12,10.9071386 12,12 C12,15.3137085 9.3137085,18 6,18 C2.6862915,18 0,15.3137085 0,12 C0,10.9071386 0,7.09286143 0,6 Z" id="Combined-Shape"></path>
                <path d="M54,6 C54,2.6862915 56.6862915,0 60,0 C63.3137085,0 66,2.6862915 66,6 C66,7.09286143 66,10.9071386 66,12 C66,15.3137085 63.3137085,18 60,18 C56.6862915,18 54,15.3137085 54,12 C54,10.9071386 54,7.09286143 54,6 Z" id="Combined-Shape"></path>
            </g>
        </g>
    </g>
</svg>