<?xml version="1.0" encoding="UTF-8"?>
<svg width="128px" height="128px" viewBox="0 0 128 128" version="1.1" xmlns="http://www.w3.org/2000/svg" xmlns:xlink="http://www.w3.org/1999/xlink">
    <!-- Generator: Sketch 48.2 (47327) - http://www.bohemiancoding.com/sketch -->
    <title>eyes2</title>
    <desc>Created with Sketch.</desc>
    <defs></defs>
    <g id="Page-1" stroke="none" stroke-width="1" fill="none" fill-rule="evenodd">
        <g id="eyes2" fill="#09333F" fill-rule="nonzero">
            <g id="Group" transform="translate(27.000000, 68.000000)">
                <path d="M24,10 L16,10 C16,6.6862915 13.3137085,4 10,4 C6.6862915,4 4,6.6862915 4,10 L-4,10 C-4,2.2680135 2.2680135,-4 10,-4 C17.7319865,-4 24,2.2680135 24,10 Z" id="Oval-3"></path>
                <path d="M78,10 L70,10 C70,6.6862915 67.3137085,4 64,4 C60.6862915,4 58,6.6862915 58,10 L50,10 C50,2.2680135 56.2680135,-4 64,-4 C71.7319865,-4 78,2.2680135 78,10 Z" id="Oval-3"></path>
            </g>
        </g>
    </g>
</svg>